<mxfile host="app.diagrams.net" agent="Mozilla/5.0 (Windows NT 10.0; Win64; x64; rv:137.0) Gecko/20100101 Firefox/137.0" version="26.2.6">
  <diagram id="R2lEEEUBdFMjLlhIrx00" name="Page-1">
    <mxGraphModel dx="870" dy="446" grid="1" gridSize="10" guides="1" tooltips="1" connect="1" arrows="1" fold="1" page="1" pageScale="1" pageWidth="850" pageHeight="1100" math="0" shadow="0" extFonts="Permanent Marker^https://fonts.googleapis.com/css?family=Permanent+Marker">
      <root>
        <mxCell id="0" />
        <mxCell id="1" parent="0" />
        <mxCell id="-f9wHyspJrlfjGtX0Zqk-20" value="User" style="swimlane;childLayout=stackLayout;horizontal=1;startSize=30;horizontalStack=0;rounded=1;fontSize=14;fontStyle=0;strokeWidth=2;resizeParent=0;resizeLast=1;shadow=0;dashed=0;align=center;arcSize=4;whiteSpace=wrap;html=1;" vertex="1" parent="1">
          <mxGeometry x="70" y="170" width="160" height="120" as="geometry" />
        </mxCell>
        <mxCell id="-f9wHyspJrlfjGtX0Zqk-21" value="&lt;div&gt;&lt;font style=&quot;font-size: 14px;&quot;&gt;balance&lt;/font&gt;&lt;/div&gt;&lt;div&gt;&lt;font style=&quot;font-size: 14px;&quot;&gt;first_name&lt;/font&gt;&lt;/div&gt;&lt;div&gt;&lt;font style=&quot;font-size: 14px;&quot;&gt;last_name&lt;/font&gt;&lt;/div&gt;&lt;div&gt;&lt;font style=&quot;font-size: 14px;&quot;&gt;username&lt;/font&gt;&lt;/div&gt;" style="align=left;strokeColor=none;fillColor=none;spacingLeft=4;spacingRight=4;fontSize=12;verticalAlign=top;resizable=0;rotatable=0;part=1;html=1;whiteSpace=wrap;" vertex="1" parent="-f9wHyspJrlfjGtX0Zqk-20">
          <mxGeometry y="30" width="160" height="90" as="geometry" />
        </mxCell>
        <mxCell id="-f9wHyspJrlfjGtX0Zqk-23" value="Extern" style="swimlane;childLayout=stackLayout;horizontal=1;startSize=30;horizontalStack=0;rounded=1;fontSize=14;fontStyle=0;strokeWidth=2;resizeParent=0;resizeLast=1;shadow=0;dashed=0;align=center;arcSize=4;whiteSpace=wrap;html=1;" vertex="1" parent="1">
          <mxGeometry x="600" y="170" width="160" height="70" as="geometry" />
        </mxCell>
        <mxCell id="-f9wHyspJrlfjGtX0Zqk-30" value="&lt;font style=&quot;font-size: 14px;&quot;&gt;name&lt;/font&gt;" style="align=left;strokeColor=none;fillColor=none;spacingLeft=4;spacingRight=4;fontSize=12;verticalAlign=top;resizable=0;rotatable=0;part=1;html=1;whiteSpace=wrap;" vertex="1" parent="-f9wHyspJrlfjGtX0Zqk-23">
          <mxGeometry y="30" width="160" height="40" as="geometry" />
        </mxCell>
        <mxCell id="-f9wHyspJrlfjGtX0Zqk-36" style="edgeStyle=orthogonalEdgeStyle;rounded=0;orthogonalLoop=1;jettySize=auto;html=1;entryX=0;entryY=0.5;entryDx=0;entryDy=0;endArrow=none;startFill=0;" edge="1" parent="1" source="-f9wHyspJrlfjGtX0Zqk-25" target="-f9wHyspJrlfjGtX0Zqk-33">
          <mxGeometry relative="1" as="geometry">
            <Array as="points">
              <mxPoint x="540" y="90" />
              <mxPoint x="540" y="90" />
            </Array>
          </mxGeometry>
        </mxCell>
        <mxCell id="-f9wHyspJrlfjGtX0Zqk-25" value="PaymentInfo" style="swimlane;childLayout=stackLayout;horizontal=1;startSize=30;horizontalStack=0;rounded=1;fontSize=14;fontStyle=0;strokeWidth=2;resizeParent=0;resizeLast=1;shadow=0;dashed=0;align=center;arcSize=4;whiteSpace=wrap;html=1;" vertex="1" parent="1">
          <mxGeometry x="345" y="50" width="160" height="70" as="geometry" />
        </mxCell>
        <mxCell id="-f9wHyspJrlfjGtX0Zqk-26" value="&lt;font style=&quot;font-size: 14px;&quot;&gt;name&lt;/font&gt;" style="align=left;strokeColor=none;fillColor=none;spacingLeft=4;spacingRight=4;fontSize=12;verticalAlign=top;resizable=0;rotatable=0;part=1;html=1;whiteSpace=wrap;" vertex="1" parent="-f9wHyspJrlfjGtX0Zqk-25">
          <mxGeometry y="30" width="160" height="40" as="geometry" />
        </mxCell>
        <mxCell id="-f9wHyspJrlfjGtX0Zqk-29" style="edgeStyle=orthogonalEdgeStyle;rounded=0;orthogonalLoop=1;jettySize=auto;html=1;entryX=1;entryY=1;entryDx=0;entryDy=0;endArrow=none;startFill=0;" edge="1" parent="1" source="-f9wHyspJrlfjGtX0Zqk-27" target="-f9wHyspJrlfjGtX0Zqk-28">
          <mxGeometry relative="1" as="geometry">
            <Array as="points">
              <mxPoint x="90" y="90" />
              <mxPoint x="90" y="64" />
            </Array>
          </mxGeometry>
        </mxCell>
        <mxCell id="-f9wHyspJrlfjGtX0Zqk-31" value="" style="edgeStyle=orthogonalEdgeStyle;rounded=0;orthogonalLoop=1;jettySize=auto;html=1;entryX=0;entryY=0.25;entryDx=0;entryDy=0;endArrow=none;startFill=0;" edge="1" parent="1" source="-f9wHyspJrlfjGtX0Zqk-27" target="-f9wHyspJrlfjGtX0Zqk-26">
          <mxGeometry relative="1" as="geometry" />
        </mxCell>
        <mxCell id="-f9wHyspJrlfjGtX0Zqk-32" style="edgeStyle=orthogonalEdgeStyle;rounded=0;orthogonalLoop=1;jettySize=auto;html=1;entryX=0.5;entryY=0;entryDx=0;entryDy=0;endArrow=none;startFill=0;" edge="1" parent="1" source="-f9wHyspJrlfjGtX0Zqk-27" target="-f9wHyspJrlfjGtX0Zqk-20">
          <mxGeometry relative="1" as="geometry" />
        </mxCell>
        <mxCell id="-f9wHyspJrlfjGtX0Zqk-27" value="assigned to" style="shape=rhombus;perimeter=rhombusPerimeter;whiteSpace=wrap;html=1;align=center;" vertex="1" parent="1">
          <mxGeometry x="130" y="60" width="120" height="60" as="geometry" />
        </mxCell>
        <mxCell id="-f9wHyspJrlfjGtX0Zqk-28" value="payment_adress" style="ellipse;whiteSpace=wrap;html=1;align=center;" vertex="1" parent="1">
          <mxGeometry x="40" y="30" width="100" height="40" as="geometry" />
        </mxCell>
        <mxCell id="-f9wHyspJrlfjGtX0Zqk-37" style="edgeStyle=orthogonalEdgeStyle;rounded=0;orthogonalLoop=1;jettySize=auto;html=1;entryX=0.5;entryY=0;entryDx=0;entryDy=0;endArrow=none;startFill=0;" edge="1" parent="1" source="-f9wHyspJrlfjGtX0Zqk-33" target="-f9wHyspJrlfjGtX0Zqk-23">
          <mxGeometry relative="1" as="geometry" />
        </mxCell>
        <mxCell id="-f9wHyspJrlfjGtX0Zqk-33" value="assigned to" style="shape=rhombus;perimeter=rhombusPerimeter;whiteSpace=wrap;html=1;align=center;" vertex="1" parent="1">
          <mxGeometry x="620" y="60" width="120" height="60" as="geometry" />
        </mxCell>
        <mxCell id="-f9wHyspJrlfjGtX0Zqk-34" value="payment_adress" style="ellipse;whiteSpace=wrap;html=1;align=center;" vertex="1" parent="1">
          <mxGeometry x="730" y="30" width="100" height="40" as="geometry" />
        </mxCell>
        <mxCell id="-f9wHyspJrlfjGtX0Zqk-35" style="edgeStyle=orthogonalEdgeStyle;rounded=0;orthogonalLoop=1;jettySize=auto;html=1;entryX=1;entryY=0.5;entryDx=0;entryDy=0;endArrow=none;startFill=0;" edge="1" parent="1" source="-f9wHyspJrlfjGtX0Zqk-34" target="-f9wHyspJrlfjGtX0Zqk-33">
          <mxGeometry relative="1" as="geometry" />
        </mxCell>
      </root>
    </mxGraphModel>
  </diagram>
</mxfile>
